<svg id="Layer_1" data-name="Layer 1" xmlns="http://www.w3.org/2000/svg" viewBox="0 0 1000 1000"><defs><style>.cls-1{fill:#fff;}</style></defs><title>dot-neutral</title><path class="cls-1" d="M500,0C223.86,0,0,223.86,0,500s223.86,500,500,500,500-223.86,500-500S776.14,0,500,0Zm-2.34,730.83a69.27,69.27,0,1,1,69.27-69.27A69.35,69.35,0,0,1,497.66,730.83Zm60.23-197.77v5.77a24,24,0,0,1-24,24H461.42a24,24,0,0,1-24-24V529c0-61.83,46.88-86.54,82.3-106.4,30.38-17,49-28.62,49-51.17,0-29.83-38.05-49.63-68.81-49.63-39.13,0-57.71,18.07-82.76,49.45a24,24,0,0,1-33.25,4.15l-43.14-32.71a24,24,0,0,1-5.18-32.88c40.59-58.32,92.29-91,172.11-91,84.88,0,175.48,66.25,175.48,153.6C683.16,488.41,557.89,490.2,557.89,533.06Z"/></svg>