<svg id="Layer_1" enable-background="new 0 0 512 512" height="512" viewBox="0 0 512 512" width="512"
  xmlns="http://www.w3.org/2000/svg">
  <g>
    <path
      d="m165.107 387.153h-159.853c-3.35 6.484-5.254 13.83-5.254 21.618 0 34.772 28.29 63.063 63.062 63.063h192.938c-3.839 0-7.678-1.465-10.606-4.394z" />
    <path
      d="m346.893 387.153-80.286 80.286c-2.929 2.929-6.768 4.394-10.606 4.394h192.937c34.773 0 63.063-28.29 63.063-63.063 0-7.787-1.904-15.133-5.254-21.617z" />
    <path
      d="m135.107 357.153-45.987-45.986h-83.02c-3.889 7.552-6.1 16.103-6.1 25.166 0 7.365 1.462 14.391 4.092 20.82z" />
    <path
      d="m422.879 311.167-45.987 45.986h131.015c2.63-6.429 4.092-13.456 4.092-20.82 0-9.063-2.211-17.614-6.1-25.166z" />
    <path
      d="m505.908 281.167c3.884-7.546 6.092-16.091 6.092-25.146v-40.188c0-1.844-.376-45.669-33.125-89.333-19.044-25.393-45.104-45.559-77.455-59.937-39.41-17.515-88.337-26.396-145.42-26.396s-106.01 8.881-145.42 26.396c-32.351 14.378-58.41 34.544-77.455 59.937-32.749 43.664-33.125 87.489-33.125 89.333v40.188c0 9.056 2.208 17.6 6.092 25.146zm-340.283-140.709c-8.409 0-14.636-6.873-15-15-.363-8.101 7.154-15 15-15 8.409 0 14.636 6.873 15 15 .363 8.101-7.154 15-15 15zm90.375 40.167c-8.409 0-14.636-6.873-15-15-.363-8.101 7.154-15 15-15 8.409 0 14.636 6.873 15 15 .363 8.101-7.154 15-15 15zm90.375-40.167c-8.409 0-14.636-6.873-15-15-.363-8.101 7.154-15 15-15 8.409 0 14.636 6.873 15 15 .363 8.101-7.154 15-15 15z" />
    <path d="m256 435.62 124.453-124.453h-248.906z" />
  </g>
</svg>