<?xml version="1.0" encoding="iso-8859-1"?>
<!-- Generator: Adobe Illustrator 19.0.0, SVG Export Plug-In . SVG Version: 6.00 Build 0)  -->
<svg version="1.1" id="Capa_1" xmlns="http://www.w3.org/2000/svg" xmlns:xlink="http://www.w3.org/1999/xlink" x="0px"
  y="0px" viewBox="0 0 512 512" style="enable-background:new 0 0 512 512;" xml:space="preserve">
  <g>
    <g>
      <path fill="white" d="M504.33,122.796l-16.048-16.048c10.946-14.364,9.87-35.02-3.245-48.137l-31.649-31.649
			c-13.116-13.116-33.772-14.191-48.137-3.245L389.203,7.671c-10.229-10.228-26.872-10.228-37.1,0l-29.336,29.336
			c-10.228,10.228-10.228,26.871,0,37.1l15.806,15.807l-15.391,15.391l-26.875-26.876L78.43,296.308l26.874,26.874l-15.391,15.391
			l-15.807-15.807c-10.228-10.229-26.872-10.229-37.1,0L7.671,352.103c-10.228,10.228-10.228,26.871,0,37.1l16.048,16.048
			c-10.946,14.364-9.87,35.02,3.245,48.137l31.649,31.649c13.116,13.116,33.772,14.191,48.137,3.245l16.048,16.047
			c10.229,10.229,26.872,10.229,37.1,0l29.336-29.336c10.228-10.228,10.228-26.871,0-37.1l-15.807-15.807l15.391-15.391
			l26.874,26.874L433.57,215.69l-26.874-26.874l15.391-15.391l15.807,15.807c10.229,10.228,26.872,10.228,37.1,0l29.336-29.336
			C514.557,149.668,514.557,133.025,504.33,122.796z M123.755,460.066l-71.822-71.822l21.215-21.215l25.303,25.303l19.08-19.08
			l21.215,21.215l-19.08,19.08l25.303,25.303L123.755,460.066z M438.853,144.971l-25.304-25.304l-19.08,19.08l-21.215-21.215
			l19.08-19.08L367.03,73.148l21.215-21.215l71.823,71.823L438.853,144.971z" />
    </g>
  </g>

</svg>